<mxfile host="app.diagrams.net" modified="2024-05-16T19:59:29.575Z" agent="Mozilla/5.0 (Macintosh; Intel Mac OS X 10_15_7) AppleWebKit/605.1.15 (KHTML, like Gecko) Version/17.2.1 Safari/605.1.15" etag="Sd5HOmzVQhWBPwdAdc05" version="24.4.3" type="github">
  <diagram name="Página-1" id="9YlPJ-A8v73CeaqPbJE2">
    <mxGraphModel dx="273" dy="378" grid="1" gridSize="10" guides="1" tooltips="1" connect="1" arrows="1" fold="1" page="1" pageScale="1" pageWidth="827" pageHeight="1169" math="0" shadow="0">
      <root>
        <mxCell id="0" />
        <mxCell id="1" parent="0" />
        <mxCell id="iLM8z7xsyros6PUvVcER-7" value="" style="edgeStyle=orthogonalEdgeStyle;rounded=0;orthogonalLoop=1;jettySize=auto;html=1;" edge="1" parent="1" source="iLM8z7xsyros6PUvVcER-1" target="iLM8z7xsyros6PUvVcER-2">
          <mxGeometry relative="1" as="geometry" />
        </mxCell>
        <mxCell id="iLM8z7xsyros6PUvVcER-1" value="INICIO" style="ellipse;whiteSpace=wrap;html=1;" vertex="1" parent="1">
          <mxGeometry x="200" y="40" width="120" height="80" as="geometry" />
        </mxCell>
        <mxCell id="iLM8z7xsyros6PUvVcER-8" value="" style="edgeStyle=orthogonalEdgeStyle;rounded=0;orthogonalLoop=1;jettySize=auto;html=1;" edge="1" parent="1" source="iLM8z7xsyros6PUvVcER-2" target="iLM8z7xsyros6PUvVcER-4">
          <mxGeometry relative="1" as="geometry" />
        </mxCell>
        <mxCell id="iLM8z7xsyros6PUvVcER-2" value="string s" style="shape=parallelogram;perimeter=parallelogramPerimeter;whiteSpace=wrap;html=1;fixedSize=1;" vertex="1" parent="1">
          <mxGeometry x="200" y="160" width="120" height="40" as="geometry" />
        </mxCell>
        <mxCell id="iLM8z7xsyros6PUvVcER-9" value="" style="edgeStyle=orthogonalEdgeStyle;rounded=0;orthogonalLoop=1;jettySize=auto;html=1;" edge="1" parent="1" source="iLM8z7xsyros6PUvVcER-3" target="iLM8z7xsyros6PUvVcER-5">
          <mxGeometry relative="1" as="geometry" />
        </mxCell>
        <mxCell id="iLM8z7xsyros6PUvVcER-3" value="int s_size = tamaño de s" style="rounded=0;whiteSpace=wrap;html=1;" vertex="1" parent="1">
          <mxGeometry x="160" y="240" width="200" height="40" as="geometry" />
        </mxCell>
        <mxCell id="iLM8z7xsyros6PUvVcER-4" value="string s_2" style="rounded=0;whiteSpace=wrap;html=1;" vertex="1" parent="1">
          <mxGeometry x="200" y="300" width="120" height="40" as="geometry" />
        </mxCell>
        <mxCell id="iLM8z7xsyros6PUvVcER-10" value="" style="edgeStyle=orthogonalEdgeStyle;rounded=0;orthogonalLoop=1;jettySize=auto;html=1;" edge="1" parent="1" source="iLM8z7xsyros6PUvVcER-5" target="iLM8z7xsyros6PUvVcER-6">
          <mxGeometry relative="1" as="geometry" />
        </mxCell>
        <mxCell id="iLM8z7xsyros6PUvVcER-5" value="int i = 0" style="rounded=0;whiteSpace=wrap;html=1;" vertex="1" parent="1">
          <mxGeometry x="200" y="380" width="120" height="40" as="geometry" />
        </mxCell>
        <mxCell id="iLM8z7xsyros6PUvVcER-14" style="edgeStyle=orthogonalEdgeStyle;rounded=0;orthogonalLoop=1;jettySize=auto;html=1;exitX=0.5;exitY=1;exitDx=0;exitDy=0;entryX=0.5;entryY=0;entryDx=0;entryDy=0;" edge="1" parent="1" source="iLM8z7xsyros6PUvVcER-6" target="iLM8z7xsyros6PUvVcER-11">
          <mxGeometry relative="1" as="geometry" />
        </mxCell>
        <mxCell id="iLM8z7xsyros6PUvVcER-25" style="edgeStyle=orthogonalEdgeStyle;rounded=0;orthogonalLoop=1;jettySize=auto;html=1;exitX=1;exitY=0.5;exitDx=0;exitDy=0;entryX=0.5;entryY=0;entryDx=0;entryDy=0;" edge="1" parent="1" source="iLM8z7xsyros6PUvVcER-6" target="iLM8z7xsyros6PUvVcER-24">
          <mxGeometry relative="1" as="geometry">
            <Array as="points">
              <mxPoint x="840" y="480" />
              <mxPoint x="840" y="890" />
              <mxPoint x="260" y="890" />
            </Array>
          </mxGeometry>
        </mxCell>
        <mxCell id="iLM8z7xsyros6PUvVcER-6" value="s_size - 1 &amp;gt;= i" style="rhombus;whiteSpace=wrap;html=1;" vertex="1" parent="1">
          <mxGeometry x="190" y="440" width="140" height="80" as="geometry" />
        </mxCell>
        <mxCell id="iLM8z7xsyros6PUvVcER-15" value="" style="edgeStyle=orthogonalEdgeStyle;rounded=0;orthogonalLoop=1;jettySize=auto;html=1;" edge="1" parent="1" source="iLM8z7xsyros6PUvVcER-11" target="iLM8z7xsyros6PUvVcER-12">
          <mxGeometry relative="1" as="geometry" />
        </mxCell>
        <mxCell id="iLM8z7xsyros6PUvVcER-11" value="char s_letter = s[i]" style="rounded=1;whiteSpace=wrap;html=1;" vertex="1" parent="1">
          <mxGeometry x="360" y="560" width="120" height="40" as="geometry" />
        </mxCell>
        <mxCell id="iLM8z7xsyros6PUvVcER-16" value="" style="edgeStyle=orthogonalEdgeStyle;rounded=0;orthogonalLoop=1;jettySize=auto;html=1;" edge="1" parent="1" source="iLM8z7xsyros6PUvVcER-12" target="iLM8z7xsyros6PUvVcER-13">
          <mxGeometry relative="1" as="geometry" />
        </mxCell>
        <mxCell id="iLM8z7xsyros6PUvVcER-23" style="edgeStyle=orthogonalEdgeStyle;rounded=0;orthogonalLoop=1;jettySize=auto;html=1;exitX=0.5;exitY=1;exitDx=0;exitDy=0;" edge="1" parent="1" source="iLM8z7xsyros6PUvVcER-12">
          <mxGeometry relative="1" as="geometry">
            <mxPoint x="420.41176470588243" y="769.9999999999998" as="targetPoint" />
          </mxGeometry>
        </mxCell>
        <mxCell id="iLM8z7xsyros6PUvVcER-12" value="s_letter != &#39;espacio&#39;" style="rhombus;whiteSpace=wrap;html=1;" vertex="1" parent="1">
          <mxGeometry x="325" y="640" width="190" height="80" as="geometry" />
        </mxCell>
        <mxCell id="iLM8z7xsyros6PUvVcER-22" style="edgeStyle=orthogonalEdgeStyle;rounded=0;orthogonalLoop=1;jettySize=auto;html=1;exitX=0.5;exitY=1;exitDx=0;exitDy=0;entryX=0.5;entryY=0;entryDx=0;entryDy=0;" edge="1" parent="1" source="iLM8z7xsyros6PUvVcER-13" target="iLM8z7xsyros6PUvVcER-19">
          <mxGeometry relative="1" as="geometry">
            <Array as="points">
              <mxPoint x="675" y="770" />
              <mxPoint x="260" y="770" />
            </Array>
          </mxGeometry>
        </mxCell>
        <mxCell id="iLM8z7xsyros6PUvVcER-13" value="s_2 = s_2 + s_letter" style="rounded=1;whiteSpace=wrap;html=1;" vertex="1" parent="1">
          <mxGeometry x="600" y="660" width="150" height="40" as="geometry" />
        </mxCell>
        <mxCell id="iLM8z7xsyros6PUvVcER-17" value="SI" style="text;html=1;align=center;verticalAlign=middle;whiteSpace=wrap;rounded=0;fontSize=16;" vertex="1" parent="1">
          <mxGeometry x="330" y="510" width="30" height="30" as="geometry" />
        </mxCell>
        <mxCell id="iLM8z7xsyros6PUvVcER-18" value="SI" style="text;html=1;align=center;verticalAlign=middle;whiteSpace=wrap;rounded=0;fontSize=16;" vertex="1" parent="1">
          <mxGeometry x="540" y="650" width="30" height="30" as="geometry" />
        </mxCell>
        <mxCell id="iLM8z7xsyros6PUvVcER-20" style="edgeStyle=orthogonalEdgeStyle;rounded=0;orthogonalLoop=1;jettySize=auto;html=1;exitX=0;exitY=0.5;exitDx=0;exitDy=0;entryX=0;entryY=0.5;entryDx=0;entryDy=0;" edge="1" parent="1" source="iLM8z7xsyros6PUvVcER-19" target="iLM8z7xsyros6PUvVcER-6">
          <mxGeometry relative="1" as="geometry">
            <Array as="points">
              <mxPoint x="120" y="820" />
              <mxPoint x="120" y="480" />
            </Array>
          </mxGeometry>
        </mxCell>
        <mxCell id="iLM8z7xsyros6PUvVcER-19" value="++i" style="rounded=1;whiteSpace=wrap;html=1;" vertex="1" parent="1">
          <mxGeometry x="200" y="800" width="120" height="40" as="geometry" />
        </mxCell>
        <mxCell id="iLM8z7xsyros6PUvVcER-28" value="" style="edgeStyle=orthogonalEdgeStyle;rounded=0;orthogonalLoop=1;jettySize=auto;html=1;" edge="1" parent="1" source="iLM8z7xsyros6PUvVcER-24" target="iLM8z7xsyros6PUvVcER-27">
          <mxGeometry relative="1" as="geometry" />
        </mxCell>
        <mxCell id="iLM8z7xsyros6PUvVcER-24" value="bool esPalindromo = true" style="rounded=0;whiteSpace=wrap;html=1;" vertex="1" parent="1">
          <mxGeometry x="160" y="920" width="200" height="40" as="geometry" />
        </mxCell>
        <mxCell id="iLM8z7xsyros6PUvVcER-26" value="NO" style="text;html=1;align=center;verticalAlign=middle;whiteSpace=wrap;rounded=0;fontSize=16;" vertex="1" parent="1">
          <mxGeometry x="540" y="450" width="30" height="30" as="geometry" />
        </mxCell>
        <mxCell id="iLM8z7xsyros6PUvVcER-32" value="" style="edgeStyle=orthogonalEdgeStyle;rounded=0;orthogonalLoop=1;jettySize=auto;html=1;" edge="1" parent="1" source="iLM8z7xsyros6PUvVcER-27" target="iLM8z7xsyros6PUvVcER-31">
          <mxGeometry relative="1" as="geometry" />
        </mxCell>
        <mxCell id="iLM8z7xsyros6PUvVcER-27" value="int n = tamaño de s_2" style="rounded=0;whiteSpace=wrap;html=1;" vertex="1" parent="1">
          <mxGeometry x="160" y="980" width="200" height="40" as="geometry" />
        </mxCell>
        <mxCell id="iLM8z7xsyros6PUvVcER-35" style="edgeStyle=orthogonalEdgeStyle;rounded=0;orthogonalLoop=1;jettySize=auto;html=1;exitX=0.5;exitY=1;exitDx=0;exitDy=0;" edge="1" parent="1" source="iLM8z7xsyros6PUvVcER-29" target="iLM8z7xsyros6PUvVcER-34">
          <mxGeometry relative="1" as="geometry" />
        </mxCell>
        <mxCell id="iLM8z7xsyros6PUvVcER-38" style="edgeStyle=orthogonalEdgeStyle;rounded=0;orthogonalLoop=1;jettySize=auto;html=1;exitX=1;exitY=0.5;exitDx=0;exitDy=0;entryX=0.5;entryY=0;entryDx=0;entryDy=0;" edge="1" parent="1" source="iLM8z7xsyros6PUvVcER-29" target="iLM8z7xsyros6PUvVcER-37">
          <mxGeometry relative="1" as="geometry">
            <Array as="points">
              <mxPoint x="840" y="1160" />
              <mxPoint x="840" y="1450" />
              <mxPoint x="260" y="1450" />
            </Array>
          </mxGeometry>
        </mxCell>
        <mxCell id="iLM8z7xsyros6PUvVcER-29" value="i &amp;lt; n / 2" style="rhombus;whiteSpace=wrap;html=1;" vertex="1" parent="1">
          <mxGeometry x="220" y="1120" width="80" height="80" as="geometry" />
        </mxCell>
        <mxCell id="iLM8z7xsyros6PUvVcER-36" style="edgeStyle=orthogonalEdgeStyle;rounded=0;orthogonalLoop=1;jettySize=auto;html=1;exitX=0;exitY=0.5;exitDx=0;exitDy=0;entryX=0;entryY=0.5;entryDx=0;entryDy=0;" edge="1" parent="1" source="iLM8z7xsyros6PUvVcER-30" target="iLM8z7xsyros6PUvVcER-29">
          <mxGeometry relative="1" as="geometry">
            <Array as="points">
              <mxPoint x="120" y="1380" />
              <mxPoint x="120" y="1160" />
            </Array>
          </mxGeometry>
        </mxCell>
        <mxCell id="iLM8z7xsyros6PUvVcER-30" value="++i" style="rounded=1;whiteSpace=wrap;html=1;" vertex="1" parent="1">
          <mxGeometry x="200" y="1360" width="120" height="40" as="geometry" />
        </mxCell>
        <mxCell id="iLM8z7xsyros6PUvVcER-33" style="edgeStyle=orthogonalEdgeStyle;rounded=0;orthogonalLoop=1;jettySize=auto;html=1;exitX=0.5;exitY=1;exitDx=0;exitDy=0;entryX=0.5;entryY=0;entryDx=0;entryDy=0;" edge="1" parent="1" source="iLM8z7xsyros6PUvVcER-31" target="iLM8z7xsyros6PUvVcER-29">
          <mxGeometry relative="1" as="geometry" />
        </mxCell>
        <mxCell id="iLM8z7xsyros6PUvVcER-31" value="int i = 0" style="rounded=0;whiteSpace=wrap;html=1;" vertex="1" parent="1">
          <mxGeometry x="200" y="1060" width="120" height="40" as="geometry" />
        </mxCell>
        <mxCell id="iLM8z7xsyros6PUvVcER-42" value="" style="edgeStyle=orthogonalEdgeStyle;rounded=0;orthogonalLoop=1;jettySize=auto;html=1;" edge="1" parent="1" source="iLM8z7xsyros6PUvVcER-34" target="iLM8z7xsyros6PUvVcER-41">
          <mxGeometry relative="1" as="geometry" />
        </mxCell>
        <mxCell id="iLM8z7xsyros6PUvVcER-43" style="edgeStyle=orthogonalEdgeStyle;rounded=0;orthogonalLoop=1;jettySize=auto;html=1;exitX=0.5;exitY=1;exitDx=0;exitDy=0;" edge="1" parent="1" source="iLM8z7xsyros6PUvVcER-34" target="iLM8z7xsyros6PUvVcER-30">
          <mxGeometry relative="1" as="geometry" />
        </mxCell>
        <mxCell id="iLM8z7xsyros6PUvVcER-34" value="s_2[i] != s_2[n - 1- i]" style="rhombus;whiteSpace=wrap;html=1;" vertex="1" parent="1">
          <mxGeometry x="320" y="1240" width="200" height="80" as="geometry" />
        </mxCell>
        <mxCell id="iLM8z7xsyros6PUvVcER-51" value="" style="edgeStyle=orthogonalEdgeStyle;rounded=0;orthogonalLoop=1;jettySize=auto;html=1;" edge="1" parent="1" source="iLM8z7xsyros6PUvVcER-37" target="iLM8z7xsyros6PUvVcER-50">
          <mxGeometry relative="1" as="geometry" />
        </mxCell>
        <mxCell id="iLM8z7xsyros6PUvVcER-54" value="" style="edgeStyle=orthogonalEdgeStyle;rounded=0;orthogonalLoop=1;jettySize=auto;html=1;" edge="1" parent="1" source="iLM8z7xsyros6PUvVcER-37" target="iLM8z7xsyros6PUvVcER-53">
          <mxGeometry relative="1" as="geometry" />
        </mxCell>
        <mxCell id="iLM8z7xsyros6PUvVcER-37" value="esPalindromo" style="rhombus;whiteSpace=wrap;html=1;" vertex="1" parent="1">
          <mxGeometry x="190" y="1480" width="140" height="80" as="geometry" />
        </mxCell>
        <mxCell id="iLM8z7xsyros6PUvVcER-49" style="edgeStyle=orthogonalEdgeStyle;rounded=0;orthogonalLoop=1;jettySize=auto;html=1;exitX=0.5;exitY=1;exitDx=0;exitDy=0;" edge="1" parent="1" source="iLM8z7xsyros6PUvVcER-41">
          <mxGeometry relative="1" as="geometry">
            <mxPoint x="674.5294117647059" y="1450" as="targetPoint" />
          </mxGeometry>
        </mxCell>
        <mxCell id="iLM8z7xsyros6PUvVcER-41" value="esPalindromo = false" style="rounded=1;whiteSpace=wrap;html=1;" vertex="1" parent="1">
          <mxGeometry x="605" y="1260" width="140" height="40" as="geometry" />
        </mxCell>
        <mxCell id="iLM8z7xsyros6PUvVcER-44" value="SI" style="text;html=1;align=center;verticalAlign=middle;whiteSpace=wrap;rounded=0;fontSize=16;" vertex="1" parent="1">
          <mxGeometry x="530" y="1250" width="30" height="30" as="geometry" />
        </mxCell>
        <mxCell id="iLM8z7xsyros6PUvVcER-46" value="SI" style="text;html=1;align=center;verticalAlign=middle;whiteSpace=wrap;rounded=0;fontSize=16;" vertex="1" parent="1">
          <mxGeometry x="330" y="1190" width="30" height="30" as="geometry" />
        </mxCell>
        <mxCell id="iLM8z7xsyros6PUvVcER-47" value="NO" style="text;html=1;align=center;verticalAlign=middle;whiteSpace=wrap;rounded=0;fontSize=16;" vertex="1" parent="1">
          <mxGeometry x="480" y="1130" width="30" height="30" as="geometry" />
        </mxCell>
        <mxCell id="iLM8z7xsyros6PUvVcER-57" style="edgeStyle=orthogonalEdgeStyle;rounded=0;orthogonalLoop=1;jettySize=auto;html=1;exitX=0.5;exitY=1;exitDx=0;exitDy=0;" edge="1" parent="1" source="iLM8z7xsyros6PUvVcER-50">
          <mxGeometry relative="1" as="geometry">
            <mxPoint x="260" y="1680" as="targetPoint" />
            <Array as="points">
              <mxPoint x="470" y="1680" />
              <mxPoint x="260" y="1680" />
            </Array>
          </mxGeometry>
        </mxCell>
        <mxCell id="iLM8z7xsyros6PUvVcER-50" value="&quot;YES&quot;" style="shape=parallelogram;perimeter=parallelogramPerimeter;whiteSpace=wrap;html=1;fixedSize=1;" vertex="1" parent="1">
          <mxGeometry x="410" y="1500" width="120" height="40" as="geometry" />
        </mxCell>
        <mxCell id="iLM8z7xsyros6PUvVcER-56" value="" style="edgeStyle=orthogonalEdgeStyle;rounded=0;orthogonalLoop=1;jettySize=auto;html=1;" edge="1" parent="1" source="iLM8z7xsyros6PUvVcER-53" target="iLM8z7xsyros6PUvVcER-55">
          <mxGeometry relative="1" as="geometry" />
        </mxCell>
        <mxCell id="iLM8z7xsyros6PUvVcER-53" value="&quot;NO&quot;" style="shape=parallelogram;perimeter=parallelogramPerimeter;whiteSpace=wrap;html=1;fixedSize=1;" vertex="1" parent="1">
          <mxGeometry x="200" y="1600" width="120" height="40" as="geometry" />
        </mxCell>
        <mxCell id="iLM8z7xsyros6PUvVcER-55" value="FIN" style="ellipse;whiteSpace=wrap;html=1;" vertex="1" parent="1">
          <mxGeometry x="200" y="1720" width="120" height="80" as="geometry" />
        </mxCell>
        <mxCell id="iLM8z7xsyros6PUvVcER-58" value="SI" style="text;html=1;align=center;verticalAlign=middle;whiteSpace=wrap;rounded=0;fontSize=16;" vertex="1" parent="1">
          <mxGeometry x="350" y="1490" width="30" height="30" as="geometry" />
        </mxCell>
      </root>
    </mxGraphModel>
  </diagram>
</mxfile>
